<svg xmlns="http://www.w3.org/2000/svg" xmlns:xlink="http://www.w3.org/1999/xlink" viewBox="0 0 2523.67 622.02"><defs><style>.cls-1{fill:none;}.cls-2{clip-path:url(#clip-path);}.cls-3{fill:#bbe6fa;}.cls-4{fill:#99d4eb;}.cls-5{fill:#d0edfa;}</style><clipPath id="clip-path" transform="translate(0 -199.1)"><rect class="cls-1" x="979.82" width="1378.13" height="508.55"/></clipPath></defs><title>Cloud Footer </title><g id="Layer_2" data-name="Layer 2"><g id="OBJECTS"><g class="cls-2"><path class="cls-3" d="M3.64,821.11a141.4,141.4,0,0,1,219-147.17,70,70,0,0,1,80.87-20.23,104.63,104.63,0,0,1,139.85-75.17c28.87-82.33,107.05-141.46,199.24-141.46a210.19,210.19,0,0,1,119.59,37.17A70.16,70.16,0,0,1,876,442.33C887.77,396.78,928.77,363,978,363a104.6,104.6,0,0,1,51.78,14.08,105.66,105.66,0,0,1,103.17-83.13c38.18,0,71.33,20.42,89.92,50.75a70.19,70.19,0,0,1,114-35.31A211.23,211.23,0,0,1,1522.51,199.1c103.81,0,190,74.92,207.76,173.61a101.67,101.67,0,0,1,79.42-3.12,70.58,70.58,0,0,1,140.73,6A170.92,170.92,0,0,1,2014.49,363c88,0,159.67,66.36,169.8,151.61a105.34,105.34,0,0,1,41.59-8.55c47.57,0,87.34,31.64,100.61,74.88a69.89,69.89,0,0,1,20.6-3.4,70.53,70.53,0,0,1,64.23,100.39c2.24-.14,4.36-.67,6.63-.67a105.18,105.18,0,0,1,98.35,143.86Z" transform="translate(0 -199.1)"/><path class="cls-4" d="M2516.3,821.11H3.64A141.39,141.39,0,0,1,0,790.1c0-25.61,7.33-49.31,19.22-70.05,87.22,88.13,197.62,39.44,197.62,39.44,69,49.87,162.67-4.57,162.67-4.57,196.68,117.44,334.36-35.26,334.36-35.26C801.29,839,893.08,770.8,893.08,770.8c122.38,54.63,236-41.53,236-41.53,74.3,83.05,172.65,23.63,172.65,23.63,148.6,87,264.43-12.7,264.43-12.7,109.27,72.12,177,0,177,0,216.35,104.9,351.85-20.54,351.85-20.54,96.15,117.13,222.91,38,222.91,38,120.09,72.06,197.36-15.43,197.49-15.59a104.1,104.1,0,0,1,.85,79Z" transform="translate(0 -199.1)"/><path class="cls-5" d="M2377,672.45s0-72.12-74.3-56.82c0,0,0-109.21-124.57-76.46,0,0-39.34-192.34-233.84-133.34,0,0-39.33-85.23-113.64-21.85,0,0,85.23-10.93,98.34,61.19,0,0,159.54-84.33,233.84,115.18,0,0,89.6-43.06,122.39,77.14C2285.18,637.49,2342,626.56,2377,672.45Z" transform="translate(0 -199.1)"/><path class="cls-5" d="M1629.56,255.77s-179.21-46.87-281.19,104.77c0,0-68.48-36.29-116.56,36.55,0,0-119.47-67-183.57,32.05,0,0-102-52.44-150.07,46.63,0,0-3.4-113.64,142.54-83,0,0,68-128.94,184.55-24.77,0,0,34.24-89.42,115.82-41.07C1341.08,326.88,1460.55,155.24,1629.56,255.77Z" transform="translate(0 -199.1)"/><path class="cls-5" d="M445.07,595.19s-97-33.47-139.57,70c0,0-57.12-17.49-81.88,32.05,0,0-99.08-62.94-187.95,22.44,0,0,116.76-60.37,189.4,0,0,0,20.4-47.21,91.79-35.55C316.86,684.11,350.37,602.43,445.07,595.19Z" transform="translate(0 -199.1)"/><path class="cls-4" d="M2177.59,670.31a137.59,137.59,0,0,0-7.83-14.42c-2.87-4.65-6-9.18-9.24-13.55a166,166,0,0,0-22.12-24.15,136.44,136.44,0,0,0-26.76-18.79A121.3,121.3,0,0,0,2081,588.1a116.53,116.53,0,0,0-16.18-2.41,122.38,122.38,0,0,0-16.36-.29l-2,.08-2,.17c-1.36.11-2.72.2-4.07.34-2.71.34-5.43.62-8.12,1.1a162.18,162.18,0,0,0-16,3.41c-21.12,5.67-41.08,15.08-59.78,26.35l-.6.36-.15-.69a136.59,136.59,0,0,0-4.46-15.36c-1.76-5-3.75-10-6-14.86a158.4,158.4,0,0,0-16.08-27.67,126.26,126.26,0,0,0-21.87-23.32,110.16,110.16,0,0,0-27.35-16.47,105.25,105.25,0,0,0-15.19-5.05A115.27,115.27,0,0,0,1849,510.9a129.56,129.56,0,0,0-16-.86c-2.68-.05-5.35.15-8,.23l-4,.31c-1.33.1-2.67.2-4,.37a200.07,200.07,0,0,0-31.5,6.11,272.9,272.9,0,0,0-30.37,10.47,272.43,272.43,0,0,1,30.31-10.7,200.92,200.92,0,0,1,31.5-6.36c1.33-.18,2.67-.29,4-.39l4-.32c2.68-.1,5.36-.3,8-.26a132.86,132.86,0,0,1,16.07.82,115.11,115.11,0,0,1,15.84,2.87,107,107,0,0,1,15.3,5,110.33,110.33,0,0,1,27.56,16.51,127.09,127.09,0,0,1,22.06,23.4A158.92,158.92,0,0,1,1946,585.92c2.25,4.87,4.26,9.86,6,14.93a138.86,138.86,0,0,1,4.54,15.48l-.75-.33c18.78-11.28,38.86-20.66,60.09-26.3a157.66,157.66,0,0,1,16.1-3.39c2.7-.48,5.43-.75,8.16-1.08,1.36-.15,2.73-.23,4.1-.34l2.05-.16,2.06-.08a123.74,123.74,0,0,1,16.45.33,117.56,117.56,0,0,1,16.26,2.47,121.51,121.51,0,0,1,30.76,11.44,136.25,136.25,0,0,1,26.82,18.94,165.53,165.53,0,0,1,22,24.37c3.27,4.39,6.32,8.95,9.16,13.63A137.59,137.59,0,0,1,2177.59,670.31Z" transform="translate(0 -199.1)"/><path class="cls-4" d="M953.94,614.11a138.92,138.92,0,0,0-12.7-10.39c-4.41-3.23-9-6.26-13.67-9.07a165.55,165.55,0,0,0-29.6-14,136.28,136.28,0,0,0-31.86-7.3,121.39,121.39,0,0,0-32.64,1.08,118.72,118.72,0,0,0-15.89,3.87,122.15,122.15,0,0,0-15.26,5.91l-1.86.85-1.83.92c-1.22.62-2.45,1.21-3.65,1.86-2.38,1.33-4.79,2.62-7.1,4.08a162.78,162.78,0,0,0-13.54,9.2c-17.42,13.22-32.36,29.46-45.43,46.95l-.41.56-.4-.58a136.94,136.94,0,0,0-9.93-12.54q-5.29-6-11.14-11.52a158.46,158.46,0,0,0-25.34-19.55,125.84,125.84,0,0,0-29-13.34,109.91,109.91,0,0,0-31.54-4.94,105.49,105.49,0,0,0-16,1.05,114.89,114.89,0,0,0-15.68,3.27,129.12,129.12,0,0,0-15.15,5.24c-2.49,1-4.89,2.15-7.33,3.24l-3.59,1.79c-1.2.6-2.4,1.2-3.56,1.86A200.37,200.37,0,0,0,533,620.12a272.92,272.92,0,0,0-24.18,21.15,275,275,0,0,1,24-21.34,201.21,201.21,0,0,1,26.78-17.77c1.16-.67,2.36-1.27,3.56-1.88l3.59-1.81c2.45-1.09,4.86-2.29,7.36-3.27a131.27,131.27,0,0,1,15.19-5.3,114.35,114.35,0,0,1,15.76-3.32,105.21,105.21,0,0,1,16.06-1.1,110.7,110.7,0,0,1,31.76,4.88,127.45,127.45,0,0,1,29.26,13.35,159,159,0,0,1,25.52,19.6q5.9,5.51,11.24,11.55a136.18,136.18,0,0,1,10,12.62l-.81,0c13.13-17.53,28.19-33.79,45.72-47a158.74,158.74,0,0,1,13.63-9.21c2.33-1.46,4.75-2.75,7.15-4.08,1.21-.65,2.45-1.24,3.67-1.86l1.84-.92,1.88-.85a122.39,122.39,0,0,1,15.35-5.9,117.19,117.19,0,0,1,16-3.85,121.36,121.36,0,0,1,32.8-1,136.51,136.51,0,0,1,32,7.42,166.31,166.31,0,0,1,29.56,14.27q7,4.27,13.62,9.18A139,139,0,0,1,953.94,614.11Z" transform="translate(0 -199.1)"/><path class="cls-4" d="M1695.07,666.54a162.68,162.68,0,0,0-13.44-14.22q-7.11-6.74-14.79-12.81A217.3,217.3,0,0,0,1634.23,618a194.41,194.41,0,0,0-36.07-14.91,180.6,180.6,0,0,0-38.37-7c-26-1.9-52.29,2.19-76.87,10.83a250.87,250.87,0,0,0-35.73,15.84,311,311,0,0,0-33.3,20.56,311.75,311.75,0,0,1,33.07-21,250.53,250.53,0,0,1,35.74-16c24.62-8.76,51-13,77.16-11.2a181.52,181.52,0,0,1,38.54,7.16,194.7,194.7,0,0,1,36.15,15.12,216.06,216.06,0,0,1,32.59,21.72q7.6,6.2,14.66,13A164.25,164.25,0,0,1,1695.07,666.54Z" transform="translate(0 -199.1)"/><path class="cls-4" d="M1370.88,510.19a162,162,0,0,0-16.87-9.92q-8.7-4.49-17.77-8.19a217.55,217.55,0,0,0-37.31-11.6,193.9,193.9,0,0,0-38.79-4.29,180.53,180.53,0,0,0-38.79,4c-25.51,5.41-49.61,16.65-70.83,31.78a251.14,251.14,0,0,0-29.91,25.16,311.13,311.13,0,0,0-26.27,29,311.23,311.23,0,0,1,25.93-29.35,250,250,0,0,1,29.87-25.35c21.21-15.27,45.37-26.67,71-32.22a181.34,181.34,0,0,1,39-3.85,194.41,194.41,0,0,1,38.92,4.48,216.13,216.13,0,0,1,37.36,11.79q9,3.84,17.69,8.42A161.92,161.92,0,0,1,1370.88,510.19Z" transform="translate(0 -199.1)"/><path class="cls-4" d="M1647,416.76a95.17,95.17,0,0,0-5.48-10.86,112.48,112.48,0,0,0-6.64-10.18,108,108,0,0,0-16.18-18.05A94.87,94.87,0,0,0,1598.81,364a85.19,85.19,0,0,0-22.85-7.8,103.19,103.19,0,0,0-24.13-1.47c-4,.43-8.06.65-12,1.48l-3,.52c-1,.18-2,.32-3,.59l-5.89,1.45c-1,.26-2,.45-2.94.75l-2.9.93-5.79,1.84c-1.92.65-3.78,1.45-5.68,2.17s-3.78,1.46-5.65,2.23c-3.69,1.69-7.4,3.33-11.06,5.08l-10.79,5.65,10.68-5.87c3.63-1.82,7.31-3.54,11-5.31,1.87-.8,3.77-1.53,5.65-2.3s3.75-1.57,5.67-2.24l5.79-1.92,2.9-1c1-.31,2-.53,3-.79l5.91-1.52a27.79,27.79,0,0,1,3-.61l3-.54a120.15,120.15,0,0,1,12.12-1.53,103.75,103.75,0,0,1,24.38,1.39,89.26,89.26,0,0,1,43.1,21.88,107.9,107.9,0,0,1,16.07,18.34,112.35,112.35,0,0,1,6.45,10.34A95.38,95.38,0,0,1,1647,416.76Z" transform="translate(0 -199.1)"/></g></g></g></svg>